<svg xmlns="http://www.w3.org/2000/svg" width="211" height="152" fill="none"><path fill="#3D93D0" d="M44.115 132.49V145h-2.052v-8.568L38.247 145h-1.422l-3.834-8.568V145h-2.052v-12.51h2.214l4.392 9.81 4.374-9.81h2.196Zm11.625 2.592-6.084 14.58h-2.124l2.016-4.824-3.906-9.756h2.286l2.79 7.56 2.898-7.56h2.124Zm10.346 10.044c-.84 0-1.596-.144-2.268-.432-.672-.3-1.2-.72-1.584-1.26-.384-.54-.576-1.17-.576-1.89h2.196c.048.54.258.984.63 1.332.384.348.918.522 1.602.522.708 0 1.26-.168 1.656-.504.396-.348.594-.792.594-1.332 0-.42-.126-.762-.378-1.026a2.375 2.375 0 0 0-.918-.612c-.36-.144-.864-.3-1.512-.468-.816-.216-1.482-.432-1.998-.648a3.381 3.381 0 0 1-1.296-1.044c-.36-.468-.54-1.092-.54-1.872 0-.72.18-1.35.54-1.89.36-.54.864-.954 1.512-1.242.648-.288 1.398-.432 2.25-.432 1.212 0 2.202.306 2.97.918.78.6 1.212 1.428 1.296 2.484h-2.268c-.036-.456-.252-.846-.648-1.17-.396-.324-.918-.486-1.566-.486-.588 0-1.068.15-1.44.45-.372.3-.558.732-.558 1.296 0 .384.114.702.342.954.24.24.54.432.9.576.36.144.852.3 1.476.468.828.228 1.5.456 2.016.684.528.228.972.582 1.332 1.062.372.468.558 1.098.558 1.89a3.37 3.37 0 0 1-.522 1.8c-.336.564-.834 1.02-1.494 1.368-.648.336-1.416.504-2.304.504Zm11.871-10.206c.757 0 1.428.162 2.017.486a3.39 3.39 0 0 1 1.403 1.44c.349.636.523 1.404.523 2.304V145h-2.035v-5.544c0-.888-.221-1.566-.665-2.034-.445-.48-1.05-.72-1.819-.72-.767 0-1.38.24-1.835.72-.445.468-.667 1.146-.667 2.034V145h-2.052v-13.32h2.052v4.554c.349-.42.786-.744 1.314-.972a4.489 4.489 0 0 1 1.764-.342Zm10.862 10.242c-.936 0-1.782-.21-2.538-.63a4.67 4.67 0 0 1-1.782-1.8c-.432-.78-.648-1.68-.648-2.7 0-1.008.222-1.902.666-2.682a4.6 4.6 0 0 1 1.818-1.8c.768-.42 1.626-.63 2.574-.63s1.806.21 2.574.63a4.6 4.6 0 0 1 1.818 1.8c.444.78.666 1.674.666 2.682s-.228 1.902-.684 2.682a4.783 4.783 0 0 1-1.872 1.818c-.78.42-1.644.63-2.592.63Zm0-1.782c.528 0 1.02-.126 1.476-.378.468-.252.846-.63 1.134-1.134.288-.504.432-1.116.432-1.836s-.138-1.326-.414-1.818c-.276-.504-.642-.882-1.098-1.134a3.003 3.003 0 0 0-1.476-.378c-.528 0-1.02.126-1.476.378-.444.252-.798.63-1.062 1.134-.264.492-.396 1.098-.396 1.818 0 1.068.27 1.896.81 2.484.552.576 1.242.864 2.07.864Zm9.228-6.84c.349-.456.823-.84 1.422-1.152.601-.312 1.279-.468 2.035-.468.864 0 1.65.216 2.358.648a4.407 4.407 0 0 1 1.692 1.782c.408.768.612 1.65.612 2.646s-.204 1.89-.612 2.682a4.63 4.63 0 0 1-1.692 1.836 4.439 4.439 0 0 1-2.358.648c-.756 0-1.428-.15-2.017-.45a4.624 4.624 0 0 1-1.44-1.152v6.156h-2.051v-14.634h2.052v1.458Zm6.031 3.456c0-.684-.144-1.272-.432-1.764a2.748 2.748 0 0 0-1.116-1.134 2.896 2.896 0 0 0-1.476-.396c-.516 0-1.008.132-1.477.396a3.033 3.033 0 0 0-1.115 1.152c-.276.504-.415 1.098-.415 1.782 0 .684.139 1.284.415 1.8.287.504.66.888 1.115 1.152.469.264.961.396 1.477.396.528 0 1.02-.132 1.476-.396.468-.276.84-.672 1.116-1.188.288-.516.432-1.116.432-1.8Zm6.169-3.456c.348-.456.822-.84 1.422-1.152.6-.312 1.278-.468 2.034-.468.864 0 1.65.216 2.358.648a4.407 4.407 0 0 1 1.692 1.782c.408.768.612 1.65.612 2.646s-.204 1.89-.612 2.682a4.63 4.63 0 0 1-1.692 1.836 4.439 4.439 0 0 1-2.358.648c-.756 0-1.428-.15-2.016-.45a4.624 4.624 0 0 1-1.44-1.152v6.156h-2.052v-14.634h2.052v1.458Zm6.03 3.456c0-.684-.144-1.272-.432-1.764a2.748 2.748 0 0 0-1.116-1.134 2.896 2.896 0 0 0-1.476-.396 2.96 2.96 0 0 0-1.476.396 3.033 3.033 0 0 0-1.116 1.152c-.276.504-.414 1.098-.414 1.782 0 .684.138 1.284.414 1.8.288.504.66.888 1.116 1.152.468.264.96.396 1.476.396.528 0 1.02-.132 1.476-.396.468-.276.84-.672 1.116-1.188.288-.516.432-1.116.432-1.8Zm5.161-6.228c-.372 0-.684-.126-.936-.378a1.271 1.271 0 0 1-.378-.936c0-.372.126-.684.378-.936s.564-.378.936-.378c.36 0 .666.126.918.378s.378.564.378.936c0 .372-.126.684-.378.936a1.25 1.25 0 0 1-.918.378Zm1.008 1.314V145h-2.052v-9.918h2.052Zm7.698-.162c.78 0 1.476.162 2.088.486.624.324 1.11.804 1.458 1.44.348.636.522 1.404.522 2.304V145h-2.034v-5.544c0-.888-.222-1.566-.666-2.034-.444-.48-1.05-.72-1.818-.72s-1.38.24-1.836.72c-.444.468-.666 1.146-.666 2.034V145h-2.052v-9.918h2.052v1.134a3.412 3.412 0 0 1 1.278-.954 4.178 4.178 0 0 1 1.674-.342Zm10.681 0c.768 0 1.446.156 2.034.468.6.3 1.068.678 1.404 1.134v-1.44h2.07v10.08c0 .912-.192 1.722-.576 2.43a4.133 4.133 0 0 1-1.674 1.692c-.72.408-1.584.612-2.592.612-1.344 0-2.46-.318-3.348-.954-.888-.624-1.392-1.476-1.512-2.556h2.034c.156.516.486.93.99 1.242.516.324 1.128.486 1.836.486.828 0 1.494-.252 1.998-.756.516-.504.774-1.236.774-2.196v-1.656c-.348.468-.822.864-1.422 1.188-.588.312-1.26.468-2.016.468a4.532 4.532 0 0 1-2.376-.648 4.81 4.81 0 0 1-1.692-1.836c-.408-.792-.612-1.686-.612-2.682s.204-1.878.612-2.646c.42-.768.984-1.362 1.692-1.782a4.532 4.532 0 0 1 2.376-.648Zm3.438 5.112c0-.684-.144-1.278-.432-1.782a2.907 2.907 0 0 0-1.098-1.152 2.896 2.896 0 0 0-1.476-.396c-.528 0-1.02.132-1.476.396-.456.252-.828.63-1.116 1.134-.276.492-.414 1.08-.414 1.764 0 .684.138 1.284.414 1.8.288.516.66.912 1.116 1.188.468.264.96.396 1.476.396.528 0 1.02-.132 1.476-.396a2.907 2.907 0 0 0 1.098-1.152c.288-.516.432-1.116.432-1.8Zm11.493 3.312h4.23V145h-6.282v-12.51h2.052v10.854Zm6.991-9.576c-.372 0-.684-.126-.936-.378a1.271 1.271 0 0 1-.378-.936c0-.372.126-.684.378-.936s.564-.378.936-.378c.36 0 .666.126.918.378s.378.564.378.936c0 .372-.126.684-.378.936a1.25 1.25 0 0 1-.918.378Zm1.008 1.314V145h-2.052v-9.918h2.052Zm6.294 10.08c-.78 0-1.482-.138-2.106-.414-.612-.288-1.098-.672-1.458-1.152a2.915 2.915 0 0 1-.576-1.638h2.124c.036.42.234.774.594 1.062.372.276.834.414 1.386.414.576 0 1.02-.108 1.332-.324.324-.228.486-.516.486-.864 0-.372-.18-.648-.54-.828-.348-.18-.906-.378-1.674-.594a16.244 16.244 0 0 1-1.818-.594 3.263 3.263 0 0 1-1.224-.882c-.336-.396-.504-.918-.504-1.566 0-.528.156-1.008.468-1.44.312-.444.756-.792 1.332-1.044.588-.252 1.26-.378 2.016-.378 1.128 0 2.034.288 2.718.864.696.564 1.068 1.338 1.116 2.322h-2.052c-.036-.444-.216-.798-.54-1.062-.324-.264-.762-.396-1.314-.396-.54 0-.954.102-1.242.306-.288.204-.432.474-.432.81 0 .264.096.486.288.666.192.18.426.324.702.432.276.096.684.222 1.224.378.72.192 1.308.39 1.764.594.468.192.87.48 1.206.864.336.384.51.894.522 1.53 0 .564-.156 1.068-.468 1.512-.312.444-.756.792-1.332 1.044-.564.252-1.23.378-1.998.378Zm8.409-8.406v5.49c0 .372.084.642.252.81.18.156.48.234.9.234h1.26V145h-1.62c-.924 0-1.632-.216-2.124-.648-.492-.432-.738-1.134-.738-2.106v-5.49h-1.17v-1.674h1.17v-2.466h2.07v2.466h2.412v1.674h-2.412ZM135.816 115.064H75.184C60.17 115.064 48 102.886 48 87.864V27.2C48 12.177 60.17 0 75.184 0h60.632C150.829 0 163 12.177 163 27.199v60.666c0 15.021-12.171 27.199-27.184 27.199Z"/><path fill="#fff" d="M78.64 88.629a4.27 4.27 0 0 0 4.269-4.272 4.27 4.27 0 1 0-8.538 0 4.27 4.27 0 0 0 4.269 4.272ZM125.963 88.629a4.27 4.27 0 0 0 0-8.543 4.27 4.27 0 0 0-4.269 4.271 4.27 4.27 0 0 0 4.269 4.272ZM86.634 56.376h-6.172v-5.603h6.172v5.603Zm-5.897-.473h5.62v-4.657h-5.62v4.657Z"/><path fill="#fff" d="M92.53 56.376h-6.172v-5.603h6.171v5.603Zm-5.896-.473h5.62v-4.657h-5.62v4.657Z"/><path fill="#fff" d="M98.426 56.376h-6.171v-5.603h6.171v5.603Zm-5.897-.473h5.621v-4.657h-5.62v4.657Z"/><path fill="#fff" d="M104.324 56.376h-6.172v-5.603h6.172v5.603Zm-5.897-.473h5.621v-4.657h-5.621v4.657Z"/><path fill="#fff" d="M110.221 56.376h-6.172v-5.603h6.172v5.603Zm-5.898-.473h5.622v-4.657h-5.622v4.657Z"/><path fill="#fff" d="M116.116 56.376h-6.171v-5.603h6.171v5.603Zm-5.895-.473h5.621v-4.657h-5.621v4.657ZM86.634 61.507h-6.172v-5.604h6.172v5.604Zm-5.897-.473h5.62v-4.658h-5.62v4.658Z"/><path fill="#fff" d="M92.53 61.507h-6.172v-5.604h6.171v5.604Zm-5.896-.473h5.62v-4.658h-5.62v4.658Z"/><path fill="#fff" d="M98.426 61.507h-6.171v-5.604h6.171v5.604Zm-5.897-.473h5.621v-4.658h-5.62v4.658Z"/><path fill="#fff" d="M104.324 61.507h-6.172v-5.604h6.172v5.604Zm-5.897-.473h5.621v-4.658h-5.621v4.658Z"/><path fill="#fff" d="M110.221 61.507h-6.172v-5.604h6.172v5.604Zm-5.898-.473h5.622v-4.658h-5.622v4.658Z"/><path fill="#fff" d="M116.116 61.507h-6.171v-5.604h6.171v5.604Zm-5.895-.473h5.621v-4.658h-5.621v4.658ZM86.634 66.637h-6.172v-5.603h6.172v5.603Zm-5.897-.473h5.62v-4.657h-5.62v4.657Z"/><path fill="#fff" d="M92.53 66.637h-6.172v-5.603h6.171v5.603Zm-5.896-.473h5.62v-4.657h-5.62v4.657Z"/><path fill="#fff" d="M98.426 66.637h-6.171v-5.603h6.171v5.603Zm-5.897-.473h5.621v-4.657h-5.62v4.657Z"/><path fill="#fff" d="M104.324 66.637h-6.172v-5.603h6.172v5.603Zm-5.897-.473h5.621v-4.657h-5.621v4.657Z"/><path fill="#fff" d="M110.221 66.637h-6.172v-5.603h6.172v5.603Zm-5.898-.473h5.622v-4.657h-5.622v4.657Z"/><path fill="#fff" d="M116.116 66.637h-6.171v-5.603h6.171v5.603Zm-5.895-.473h5.621v-4.657h-5.621v4.657ZM86.634 71.767h-6.172v-5.603h6.172v5.603Zm-5.897-.473h5.62v-4.657h-5.62v4.657Z"/><path fill="#fff" d="M92.53 71.767h-6.172v-5.603h6.171v5.603Zm-5.896-.473h5.62v-4.657h-5.62v4.657Z"/><path fill="#fff" d="M98.426 71.767h-6.171v-5.603h6.171v5.603Zm-5.897-.473h5.621v-4.657h-5.62v4.657Z"/><path fill="#fff" d="M104.324 71.767h-6.172v-5.603h6.172v5.603Zm-5.897-.473h5.621v-4.657h-5.621v4.657Z"/><path fill="#fff" d="M110.221 71.767h-6.172v-5.603h6.172v5.603Zm-5.898-.473h5.622v-4.657h-5.622v4.657ZM142.921 34.662l5.07-5.073h-2.512l6.032 6.035c.658.659 1.863.708 2.512 0 .651-.71.703-1.81 0-2.513l-6.032-6.036c-.679-.68-1.832-.68-2.512 0l-5.071 5.073c-.658.659-.706 1.864 0 2.514.71.651 1.811.703 2.513 0Z"/><path fill="#046EA0" d="m139.735 46.792-35.74 35.765-2.131 2.131a6.59 6.59 0 0 1-9.322 0L71.087 63.221a6.6 6.6 0 0 1 0-9.328l2.124-2.126a6.59 6.59 0 0 1 9.323 0l14.668 14.677 31.085-31.105a6.59 6.59 0 0 1 9.322 0l2.125 2.125a6.598 6.598 0 0 1 .001 9.328Z"/></svg>