<svg xmlns="http://www.w3.org/2000/svg" width="242" height="47" fill="none"><path fill="#3D93D0" d="M68.294 17.1V31h-2.28v-9.52L61.774 31h-1.58l-4.26-9.52V31h-2.28V17.1h2.46l4.88 10.9 4.86-10.9h2.44Zm12.917 2.88-6.76 16.2h-2.36l2.24-5.36-4.34-10.84h2.54l3.1 8.4 3.22-8.4h2.36Zm11.496 11.16c-.933 0-1.773-.16-2.52-.48-.747-.333-1.333-.8-1.76-1.4-.427-.6-.64-1.3-.64-2.1h2.44c.053.6.287 1.093.7 1.48.427.387 1.02.58 1.78.58.787 0 1.4-.187 1.84-.56.44-.387.66-.88.66-1.48 0-.467-.14-.847-.42-1.14a2.64 2.64 0 0 0-1.02-.68c-.4-.16-.96-.333-1.68-.52-.907-.24-1.647-.48-2.22-.72a3.756 3.756 0 0 1-1.44-1.16c-.4-.52-.6-1.213-.6-2.08 0-.8.2-1.5.6-2.1.4-.6.96-1.06 1.68-1.38.72-.32 1.553-.48 2.5-.48 1.347 0 2.447.34 3.3 1.02.867.667 1.347 1.587 1.44 2.76h-2.52c-.04-.507-.28-.94-.72-1.3-.44-.36-1.02-.54-1.74-.54-.653 0-1.187.167-1.6.5-.413.333-.62.813-.62 1.44 0 .427.127.78.38 1.06.267.267.6.48 1 .64.4.16.947.333 1.64.52.92.253 1.667.507 2.24.76.587.253 1.08.647 1.48 1.18.413.52.62 1.22.62 2.1 0 .707-.193 1.373-.58 2-.373.627-.927 1.133-1.66 1.52-.72.373-1.573.56-2.56.56Zm13.19-11.34c.84 0 1.587.18 2.24.54.667.36 1.187.893 1.56 1.6.387.707.58 1.56.58 2.56V31h-2.26v-6.16c0-.987-.246-1.74-.74-2.26-.493-.533-1.166-.8-2.02-.8-.853 0-1.533.267-2.04.8-.493.52-.74 1.273-.74 2.26V31h-2.28V16.2h2.28v5.06a3.846 3.846 0 0 1 1.46-1.08 4.99 4.99 0 0 1 1.96-.38Zm12.069 11.38c-1.04 0-1.98-.233-2.82-.7a5.19 5.19 0 0 1-1.98-2c-.48-.867-.72-1.867-.72-3 0-1.12.246-2.113.74-2.98a5.105 5.105 0 0 1 2.02-2c.853-.467 1.806-.7 2.86-.7 1.053 0 2.006.233 2.86.7a5.118 5.118 0 0 1 2.02 2c.493.867.74 1.86.74 2.98 0 1.12-.254 2.113-.76 2.98a5.316 5.316 0 0 1-2.08 2.02c-.867.467-1.827.7-2.88.7Zm0-1.98a3.34 3.34 0 0 0 1.64-.42c.52-.28.94-.7 1.26-1.26.32-.56.48-1.24.48-2.04s-.154-1.473-.46-2.02c-.307-.56-.714-.98-1.22-1.26a3.34 3.34 0 0 0-1.64-.42c-.587 0-1.134.14-1.64.42-.494.28-.887.7-1.18 1.26-.294.547-.44 1.22-.44 2.02 0 1.187.3 2.107.9 2.76.613.64 1.38.96 2.3.96Zm10.253-7.6c.387-.507.914-.933 1.58-1.28.667-.347 1.42-.52 2.26-.52.96 0 1.834.24 2.62.72a4.895 4.895 0 0 1 1.88 1.98c.454.853.68 1.833.68 2.94s-.226 2.1-.68 2.98a5.142 5.142 0 0 1-1.88 2.04 4.93 4.93 0 0 1-2.62.72c-.84 0-1.586-.167-2.24-.5-.653-.347-1.186-.773-1.6-1.28v6.84h-2.28V19.98h2.28v1.62Zm6.7 3.84c0-.76-.16-1.413-.48-1.96a3.05 3.05 0 0 0-1.24-1.26 3.216 3.216 0 0 0-1.64-.44c-.573 0-1.12.147-1.64.44-.506.293-.92.72-1.24 1.28-.306.56-.46 1.22-.46 1.98s.154 1.427.46 2c.32.56.734.987 1.24 1.28.52.293 1.067.44 1.64.44.587 0 1.134-.147 1.64-.44.52-.307.934-.747 1.24-1.32.32-.573.48-1.24.48-2Zm6.855-3.84c.387-.507.913-.933 1.58-1.28s1.42-.52 2.26-.52c.96 0 1.833.24 2.62.72a4.895 4.895 0 0 1 1.88 1.98c.453.853.68 1.833.68 2.94s-.227 2.1-.68 2.98a5.142 5.142 0 0 1-1.88 2.04c-.787.48-1.66.72-2.62.72-.84 0-1.587-.167-2.24-.5-.653-.347-1.187-.773-1.6-1.28v6.84h-2.28V19.98h2.28v1.62Zm6.7 3.84c0-.76-.16-1.413-.48-1.96-.307-.56-.72-.98-1.24-1.26a3.218 3.218 0 0 0-1.64-.44c-.573 0-1.12.147-1.64.44-.507.293-.92.72-1.24 1.28-.307.56-.46 1.22-.46 1.98s.153 1.427.46 2c.32.56.733.987 1.24 1.28.52.293 1.067.44 1.64.44.587 0 1.133-.147 1.64-.44.52-.307.933-.747 1.24-1.32.32-.573.48-1.24.48-2Zm5.735-6.92c-.414 0-.76-.14-1.04-.42-.28-.28-.42-.627-.42-1.04 0-.413.14-.76.42-1.04.28-.28.626-.42 1.04-.42.4 0 .74.14 1.02.42.28.28.42.627.42 1.04 0 .413-.14.76-.42 1.04-.28.28-.62.42-1.02.42Zm1.12 1.46V31h-2.28V19.98h2.28Zm8.553-.18c.867 0 1.64.18 2.32.54.694.36 1.234.893 1.62 1.6.387.707.58 1.56.58 2.56V31h-2.26v-6.16c0-.987-.246-1.74-.74-2.26-.493-.533-1.166-.8-2.02-.8-.853 0-1.533.267-2.04.8-.493.52-.74 1.273-.74 2.26V31h-2.28V19.98h2.28v1.26a3.799 3.799 0 0 1 1.42-1.06 4.645 4.645 0 0 1 1.86-.38Zm11.869 0c.853 0 1.606.173 2.26.52.666.333 1.186.753 1.56 1.26v-1.6h2.3v11.2c0 1.013-.214 1.913-.64 2.7a4.596 4.596 0 0 1-1.86 1.88c-.8.453-1.76.68-2.88.68-1.494 0-2.734-.353-3.72-1.06-.987-.693-1.547-1.64-1.68-2.84h2.26c.173.573.54 1.033 1.1 1.38.573.36 1.253.54 2.04.54.92 0 1.66-.28 2.22-.84.573-.56.86-1.373.86-2.44v-1.84c-.387.52-.914.96-1.58 1.32-.654.347-1.4.52-2.24.52-.96 0-1.84-.24-2.64-.72-.787-.493-1.414-1.173-1.88-2.04-.454-.88-.68-1.873-.68-2.98s.226-2.087.68-2.94c.466-.853 1.093-1.513 1.88-1.98.8-.48 1.68-.72 2.64-.72Zm3.82 5.68c0-.76-.16-1.42-.48-1.98-.307-.56-.714-.987-1.22-1.28a3.22 3.22 0 0 0-1.64-.44c-.587 0-1.134.147-1.64.44-.507.28-.92.7-1.24 1.26-.307.547-.46 1.2-.46 1.96s.153 1.427.46 2c.32.573.733 1.013 1.24 1.32.52.293 1.066.44 1.64.44a3.22 3.22 0 0 0 1.64-.44c.506-.293.913-.72 1.22-1.28.32-.573.48-1.24.48-2Zm12.77 3.68h4.7V31h-6.98V17.1h2.28v12.06Zm7.766-10.64c-.413 0-.76-.14-1.04-.42-.28-.28-.42-.627-.42-1.04 0-.413.14-.76.42-1.04.28-.28.627-.42 1.04-.42.4 0 .74.14 1.02.42.28.28.42.627.42 1.04 0 .413-.14.76-.42 1.04-.28.28-.62.42-1.02.42Zm1.12 1.46V31h-2.28V19.98h2.28Zm6.994 11.2c-.867 0-1.647-.153-2.34-.46-.68-.32-1.22-.747-1.62-1.28a3.233 3.233 0 0 1-.64-1.82h2.36c.04.467.26.86.66 1.18.413.307.926.46 1.54.46.64 0 1.133-.12 1.48-.36.36-.253.54-.573.54-.96 0-.413-.2-.72-.6-.92-.387-.2-1.007-.42-1.86-.66-.827-.227-1.5-.447-2.02-.66a3.62 3.62 0 0 1-1.36-.98c-.374-.44-.56-1.02-.56-1.74 0-.587.173-1.12.52-1.6.346-.493.84-.88 1.48-1.16.653-.28 1.4-.42 2.24-.42 1.253 0 2.26.32 3.02.96.773.627 1.186 1.487 1.24 2.58h-2.28c-.04-.493-.24-.887-.6-1.18-.36-.293-.847-.44-1.46-.44-.6 0-1.06.113-1.38.34-.32.227-.48.527-.48.9 0 .293.106.54.32.74.213.2.473.36.78.48.306.107.76.247 1.36.42.8.213 1.453.433 1.96.66.52.213.966.533 1.34.96.373.427.566.993.58 1.7 0 .627-.174 1.187-.52 1.68-.347.493-.84.88-1.48 1.16-.627.28-1.367.42-2.22.42Zm9.343-9.34v6.1c0 .413.094.713.28.9.2.173.534.26 1 .26h1.4V31h-1.8c-1.026 0-1.813-.24-2.36-.72-.546-.48-.82-1.26-.82-2.34v-6.1h-1.3v-1.86h1.3v-2.74h2.3v2.74h2.68v1.86h-2.68ZM35.156 46.064H10.883C4.873 46.064 0 41.189 0 35.175V10.89C0 4.875 4.872 0 10.883 0h24.273c6.01 0 10.882 4.875 10.882 10.889v24.286c0 6.014-4.872 10.889-10.882 10.889Z"/><path fill="#fff" d="M12.266 35.48a1.71 1.71 0 1 0 0-3.418 1.71 1.71 0 0 0 0 3.419ZM31.211 35.48a1.71 1.71 0 1 0 0-3.418 1.71 1.71 0 0 0 0 3.419ZM15.466 22.57h-2.47v-2.244h2.47v2.243Zm-2.36-.19h2.25v-1.865h-2.25v1.865Z"/><path fill="#fff" d="M17.826 22.57h-2.47v-2.244h2.47v2.243Zm-2.36-.19h2.25v-1.865h-2.25v1.865Z"/><path fill="#fff" d="M20.187 22.57h-2.47v-2.244h2.47v2.243Zm-2.36-.19h2.25v-1.865h-2.25v1.865Z"/><path fill="#fff" d="M22.548 22.57h-2.47v-2.244h2.47v2.243Zm-2.36-.19h2.25v-1.865h-2.25v1.865Z"/><path fill="#fff" d="M24.909 22.57h-2.47v-2.244h2.47v2.243Zm-2.36-.19h2.25v-1.865h-2.25v1.865Z"/><path fill="#fff" d="M27.27 22.57h-2.472v-2.244h2.471v2.243Zm-2.361-.19h2.25v-1.865h-2.25v1.865ZM15.466 24.623h-2.47V22.38h2.47v2.243Zm-2.36-.19h2.25V22.57h-2.25v1.865Z"/><path fill="#fff" d="M17.826 24.623h-2.47V22.38h2.47v2.243Zm-2.36-.19h2.25V22.57h-2.25v1.865Z"/><path fill="#fff" d="M20.187 24.623h-2.47V22.38h2.47v2.243Zm-2.36-.19h2.25V22.57h-2.25v1.865Z"/><path fill="#fff" d="M22.548 24.623h-2.47V22.38h2.47v2.243Zm-2.36-.19h2.25V22.57h-2.25v1.865Z"/><path fill="#fff" d="M24.909 24.623h-2.47V22.38h2.47v2.243Zm-2.36-.19h2.25V22.57h-2.25v1.865Z"/><path fill="#fff" d="M27.27 24.623h-2.472V22.38h2.471v2.243Zm-2.361-.19h2.25V22.57h-2.25v1.865ZM15.466 26.677h-2.47v-2.243h2.47v2.243Zm-2.36-.19h2.25v-1.864h-2.25v1.865Z"/><path fill="#fff" d="M17.826 26.677h-2.47v-2.243h2.47v2.243Zm-2.36-.19h2.25v-1.864h-2.25v1.865Z"/><path fill="#fff" d="M20.187 26.677h-2.47v-2.243h2.47v2.243Zm-2.36-.19h2.25v-1.864h-2.25v1.865Z"/><path fill="#fff" d="M22.548 26.677h-2.47v-2.243h2.47v2.243Zm-2.36-.19h2.25v-1.864h-2.25v1.865Z"/><path fill="#fff" d="M24.909 26.677h-2.47v-2.243h2.47v2.243Zm-2.36-.19h2.25v-1.864h-2.25v1.865Z"/><path fill="#fff" d="M27.27 26.677h-2.472v-2.243h2.471v2.243Zm-2.361-.19h2.25v-1.864h-2.25v1.865ZM15.466 28.73h-2.47v-2.242h2.47v2.243Zm-2.36-.189h2.25v-1.864h-2.25v1.864Z"/><path fill="#fff" d="M17.826 28.73h-2.47v-2.242h2.47v2.243Zm-2.36-.189h2.25v-1.864h-2.25v1.864Z"/><path fill="#fff" d="M20.187 28.73h-2.47v-2.242h2.47v2.243Zm-2.36-.189h2.25v-1.864h-2.25v1.864Z"/><path fill="#fff" d="M22.548 28.73h-2.47v-2.242h2.47v2.243Zm-2.36-.189h2.25v-1.864h-2.25v1.864Z"/><path fill="#fff" d="M24.909 28.73h-2.47v-2.242h2.47v2.243Zm-2.36-.189h2.25v-1.864h-2.25v1.864ZM38 13.876l2.03-2.03h-1.006l2.415 2.416c.263.263.745.283 1.005 0 .261-.285.282-.725 0-1.007L40.03 10.84a.721.721 0 0 0-1.006 0l-2.03 2.031c-.263.264-.283.746 0 1.006.284.261.725.282 1.006 0Z"/><path fill="#046EA0" d="M36.725 18.732 22.416 33.05l-.852.853a2.638 2.638 0 0 1-3.732 0l-8.59-8.594a2.642 2.642 0 0 1 0-3.734l.851-.85a2.638 2.638 0 0 1 3.732 0l5.872 5.875 12.445-12.453a2.638 2.638 0 0 1 3.732 0l.85.851a2.641 2.641 0 0 1 0 3.734Z"/></svg>